<mxfile host="app.diagrams.net" modified="2022-02-19T10:57:08.550Z" agent="5.0 (X11; Linux x86_64) AppleWebKit/537.36 (KHTML, like Gecko) Chrome/98.0.4758.87 Safari/537.36" etag="XHZ1xk-gmp2CVZdlqVkT" version="16.6.1" type="github">
  <diagram id="prtHgNgQTEPvFCAcTncT" name="Page-1">
    <mxGraphModel dx="2419" dy="994" grid="1" gridSize="10" guides="1" tooltips="1" connect="1" arrows="1" fold="1" page="1" pageScale="1" pageWidth="827" pageHeight="1169" math="0" shadow="0">
      <root>
        <mxCell id="0" />
        <mxCell id="1" parent="0" />
        <mxCell id="sDQCDstEzer969jvJ3Kz-176" value="" style="group" vertex="1" connectable="0" parent="1">
          <mxGeometry x="420" y="210" width="120" height="74" as="geometry" />
        </mxCell>
        <mxCell id="sDQCDstEzer969jvJ3Kz-177" value="" style="group" vertex="1" connectable="0" parent="sDQCDstEzer969jvJ3Kz-176">
          <mxGeometry y="14" width="120" height="60" as="geometry" />
        </mxCell>
        <mxCell id="sDQCDstEzer969jvJ3Kz-178" value="" style="rounded=0;whiteSpace=wrap;html=1;" vertex="1" parent="sDQCDstEzer969jvJ3Kz-177">
          <mxGeometry width="120" height="60" as="geometry" />
        </mxCell>
        <mxCell id="sDQCDstEzer969jvJ3Kz-243" value="" style="group" vertex="1" connectable="0" parent="sDQCDstEzer969jvJ3Kz-177">
          <mxGeometry x="3" width="110" height="60" as="geometry" />
        </mxCell>
        <mxCell id="sDQCDstEzer969jvJ3Kz-239" value="" style="endArrow=none;html=1;rounded=0;strokeColor=#000000;strokeWidth=2;" edge="1" parent="sDQCDstEzer969jvJ3Kz-243">
          <mxGeometry width="50" height="50" relative="1" as="geometry">
            <mxPoint as="sourcePoint" />
            <mxPoint x="55.00000000000001" y="36" as="targetPoint" />
          </mxGeometry>
        </mxCell>
        <mxCell id="sDQCDstEzer969jvJ3Kz-240" value="" style="endArrow=none;html=1;rounded=0;strokeColor=#000000;strokeWidth=2;" edge="1" parent="sDQCDstEzer969jvJ3Kz-243">
          <mxGeometry width="50" height="50" relative="1" as="geometry">
            <mxPoint x="55.00000000000001" y="36" as="sourcePoint" />
            <mxPoint x="55.00000000000001" y="24" as="targetPoint" />
          </mxGeometry>
        </mxCell>
        <mxCell id="sDQCDstEzer969jvJ3Kz-242" value="" style="endArrow=none;html=1;rounded=0;strokeColor=#000000;strokeWidth=2;" edge="1" parent="sDQCDstEzer969jvJ3Kz-243">
          <mxGeometry width="50" height="50" relative="1" as="geometry">
            <mxPoint x="55.00000000000001" y="24" as="sourcePoint" />
            <mxPoint x="110.00000000000001" y="60" as="targetPoint" />
          </mxGeometry>
        </mxCell>
        <mxCell id="sDQCDstEzer969jvJ3Kz-183" value="" style="ellipse;whiteSpace=wrap;html=1;aspect=fixed;fillColor=#000000;" vertex="1" parent="sDQCDstEzer969jvJ3Kz-176">
          <mxGeometry x="72" width="10" height="10" as="geometry" />
        </mxCell>
        <mxCell id="sDQCDstEzer969jvJ3Kz-184" value="" style="ellipse;whiteSpace=wrap;html=1;aspect=fixed;fillColor=#000000;" vertex="1" parent="sDQCDstEzer969jvJ3Kz-176">
          <mxGeometry x="39" y="1" width="10" height="10" as="geometry" />
        </mxCell>
        <mxCell id="sDQCDstEzer969jvJ3Kz-47" value="" style="group" vertex="1" connectable="0" parent="1">
          <mxGeometry x="412" y="100" width="120" height="74" as="geometry" />
        </mxCell>
        <mxCell id="sDQCDstEzer969jvJ3Kz-37" value="" style="group" vertex="1" connectable="0" parent="sDQCDstEzer969jvJ3Kz-47">
          <mxGeometry y="14" width="120" height="60" as="geometry" />
        </mxCell>
        <mxCell id="sDQCDstEzer969jvJ3Kz-38" value="" style="rounded=0;whiteSpace=wrap;html=1;" vertex="1" parent="sDQCDstEzer969jvJ3Kz-37">
          <mxGeometry width="120" height="60" as="geometry" />
        </mxCell>
        <mxCell id="sDQCDstEzer969jvJ3Kz-39" value="" style="endArrow=none;html=1;rounded=0;strokeColor=#000000;strokeWidth=2;" edge="1" parent="sDQCDstEzer969jvJ3Kz-37">
          <mxGeometry width="50" height="50" relative="1" as="geometry">
            <mxPoint x="17" y="25" as="sourcePoint" />
            <mxPoint x="107" y="25" as="targetPoint" />
            <Array as="points" />
          </mxGeometry>
        </mxCell>
        <mxCell id="sDQCDstEzer969jvJ3Kz-40" value="" style="endArrow=none;html=1;rounded=0;strokeColor=#000000;strokeWidth=2;" edge="1" parent="sDQCDstEzer969jvJ3Kz-37">
          <mxGeometry width="50" height="50" relative="1" as="geometry">
            <mxPoint x="18" y="45" as="sourcePoint" />
            <mxPoint x="18" y="25" as="targetPoint" />
          </mxGeometry>
        </mxCell>
        <mxCell id="sDQCDstEzer969jvJ3Kz-41" value="" style="endArrow=none;html=1;rounded=0;strokeColor=#000000;strokeWidth=2;" edge="1" parent="sDQCDstEzer969jvJ3Kz-37">
          <mxGeometry width="50" height="50" relative="1" as="geometry">
            <mxPoint x="106" y="46" as="sourcePoint" />
            <mxPoint x="106" y="26" as="targetPoint" />
          </mxGeometry>
        </mxCell>
        <mxCell id="sDQCDstEzer969jvJ3Kz-42" value="" style="endArrow=none;html=1;rounded=0;strokeColor=#000000;strokeWidth=2;" edge="1" parent="sDQCDstEzer969jvJ3Kz-37">
          <mxGeometry width="50" height="50" relative="1" as="geometry">
            <mxPoint x="61" y="46" as="sourcePoint" />
            <mxPoint x="61" y="26" as="targetPoint" />
          </mxGeometry>
        </mxCell>
        <mxCell id="sDQCDstEzer969jvJ3Kz-45" value="" style="ellipse;whiteSpace=wrap;html=1;aspect=fixed;fillColor=#000000;" vertex="1" parent="sDQCDstEzer969jvJ3Kz-47">
          <mxGeometry x="72" width="10" height="10" as="geometry" />
        </mxCell>
        <mxCell id="sDQCDstEzer969jvJ3Kz-46" value="" style="ellipse;whiteSpace=wrap;html=1;aspect=fixed;fillColor=#000000;" vertex="1" parent="sDQCDstEzer969jvJ3Kz-47">
          <mxGeometry x="39" y="1" width="10" height="10" as="geometry" />
        </mxCell>
        <mxCell id="sDQCDstEzer969jvJ3Kz-48" value="Cdo" style="text;html=1;align=center;verticalAlign=middle;resizable=0;points=[];autosize=1;strokeColor=none;fillColor=none;" vertex="1" parent="1">
          <mxGeometry x="533" y="154" width="40" height="20" as="geometry" />
        </mxCell>
        <mxCell id="sDQCDstEzer969jvJ3Kz-60" value="" style="endArrow=none;html=1;rounded=0;strokeColor=#000000;strokeWidth=2;entryX=0;entryY=0.5;entryDx=0;entryDy=0;" edge="1" parent="1">
          <mxGeometry width="50" height="50" relative="1" as="geometry">
            <mxPoint x="334" y="144" as="sourcePoint" />
            <mxPoint x="410" y="144" as="targetPoint" />
          </mxGeometry>
        </mxCell>
        <mxCell id="sDQCDstEzer969jvJ3Kz-61" value="" style="endArrow=none;html=1;rounded=0;strokeColor=#000000;strokeWidth=2;entryX=0.5;entryY=1;entryDx=0;entryDy=0;" edge="1" parent="1" target="sDQCDstEzer969jvJ3Kz-1">
          <mxGeometry width="50" height="50" relative="1" as="geometry">
            <mxPoint x="333" y="220" as="sourcePoint" />
            <mxPoint x="430" y="40" as="targetPoint" />
          </mxGeometry>
        </mxCell>
        <mxCell id="sDQCDstEzer969jvJ3Kz-128" value="" style="group" vertex="1" connectable="0" parent="1">
          <mxGeometry x="-240" y="209" width="185" height="74" as="geometry" />
        </mxCell>
        <mxCell id="sDQCDstEzer969jvJ3Kz-72" value="Cdo y Ser" style="text;html=1;align=center;verticalAlign=middle;resizable=0;points=[];autosize=1;strokeColor=none;fillColor=none;" vertex="1" parent="sDQCDstEzer969jvJ3Kz-128">
          <mxGeometry x="115" y="54" width="70" height="20" as="geometry" />
        </mxCell>
        <mxCell id="sDQCDstEzer969jvJ3Kz-75" value="" style="group" vertex="1" connectable="0" parent="sDQCDstEzer969jvJ3Kz-128">
          <mxGeometry width="120" height="74" as="geometry" />
        </mxCell>
        <mxCell id="sDQCDstEzer969jvJ3Kz-62" value="" style="group" vertex="1" connectable="0" parent="sDQCDstEzer969jvJ3Kz-75">
          <mxGeometry width="120" height="74" as="geometry" />
        </mxCell>
        <mxCell id="sDQCDstEzer969jvJ3Kz-63" value="" style="group" vertex="1" connectable="0" parent="sDQCDstEzer969jvJ3Kz-62">
          <mxGeometry y="14" width="120" height="60" as="geometry" />
        </mxCell>
        <mxCell id="sDQCDstEzer969jvJ3Kz-64" value="" style="rounded=0;whiteSpace=wrap;html=1;" vertex="1" parent="sDQCDstEzer969jvJ3Kz-63">
          <mxGeometry width="120" height="60" as="geometry" />
        </mxCell>
        <mxCell id="sDQCDstEzer969jvJ3Kz-65" value="" style="endArrow=none;html=1;rounded=0;strokeColor=#000000;strokeWidth=2;" edge="1" parent="sDQCDstEzer969jvJ3Kz-63">
          <mxGeometry width="50" height="50" relative="1" as="geometry">
            <mxPoint x="17" y="25" as="sourcePoint" />
            <mxPoint x="107" y="25" as="targetPoint" />
            <Array as="points" />
          </mxGeometry>
        </mxCell>
        <mxCell id="sDQCDstEzer969jvJ3Kz-66" value="" style="endArrow=none;html=1;rounded=0;strokeColor=#000000;strokeWidth=2;" edge="1" parent="sDQCDstEzer969jvJ3Kz-63">
          <mxGeometry width="50" height="50" relative="1" as="geometry">
            <mxPoint x="18" y="45" as="sourcePoint" />
            <mxPoint x="18" y="25" as="targetPoint" />
          </mxGeometry>
        </mxCell>
        <mxCell id="sDQCDstEzer969jvJ3Kz-67" value="" style="endArrow=none;html=1;rounded=0;strokeColor=#000000;strokeWidth=2;" edge="1" parent="sDQCDstEzer969jvJ3Kz-63">
          <mxGeometry width="50" height="50" relative="1" as="geometry">
            <mxPoint x="106" y="46" as="sourcePoint" />
            <mxPoint x="106" y="26" as="targetPoint" />
          </mxGeometry>
        </mxCell>
        <mxCell id="sDQCDstEzer969jvJ3Kz-68" value="" style="endArrow=none;html=1;rounded=0;strokeColor=#000000;strokeWidth=2;" edge="1" parent="sDQCDstEzer969jvJ3Kz-63">
          <mxGeometry width="50" height="50" relative="1" as="geometry">
            <mxPoint x="61" y="46" as="sourcePoint" />
            <mxPoint x="60" y="47" as="targetPoint" />
          </mxGeometry>
        </mxCell>
        <mxCell id="sDQCDstEzer969jvJ3Kz-69" value="" style="ellipse;whiteSpace=wrap;html=1;aspect=fixed;fillColor=#000000;" vertex="1" parent="sDQCDstEzer969jvJ3Kz-62">
          <mxGeometry x="72" width="10" height="10" as="geometry" />
        </mxCell>
        <mxCell id="sDQCDstEzer969jvJ3Kz-70" value="" style="ellipse;whiteSpace=wrap;html=1;aspect=fixed;fillColor=#000000;" vertex="1" parent="sDQCDstEzer969jvJ3Kz-62">
          <mxGeometry x="39" y="1" width="10" height="10" as="geometry" />
        </mxCell>
        <mxCell id="sDQCDstEzer969jvJ3Kz-71" value="" style="ellipse;whiteSpace=wrap;html=1;aspect=fixed;fillColor=#000000;" vertex="1" parent="sDQCDstEzer969jvJ3Kz-75">
          <mxGeometry x="56" width="10" height="10" as="geometry" />
        </mxCell>
        <mxCell id="sDQCDstEzer969jvJ3Kz-135" value="" style="group" vertex="1" connectable="0" parent="1">
          <mxGeometry x="-40" y="210" width="120" height="98" as="geometry" />
        </mxCell>
        <mxCell id="sDQCDstEzer969jvJ3Kz-131" value="" style="ellipse;whiteSpace=wrap;html=1;aspect=fixed;fillColor=#000000;" vertex="1" parent="sDQCDstEzer969jvJ3Kz-135">
          <mxGeometry x="33" width="10" height="10" as="geometry" />
        </mxCell>
        <mxCell id="sDQCDstEzer969jvJ3Kz-134" value="" style="group" vertex="1" connectable="0" parent="sDQCDstEzer969jvJ3Kz-135">
          <mxGeometry width="120" height="98" as="geometry" />
        </mxCell>
        <mxCell id="sDQCDstEzer969jvJ3Kz-129" value="" style="ellipse;whiteSpace=wrap;html=1;aspect=fixed;fillColor=#000000;" vertex="1" parent="sDQCDstEzer969jvJ3Kz-134">
          <mxGeometry x="13" width="10" height="10" as="geometry" />
        </mxCell>
        <mxCell id="sDQCDstEzer969jvJ3Kz-133" value="" style="group" vertex="1" connectable="0" parent="sDQCDstEzer969jvJ3Kz-134">
          <mxGeometry width="120" height="98" as="geometry" />
        </mxCell>
        <mxCell id="sDQCDstEzer969jvJ3Kz-76" value="" style="group" vertex="1" connectable="0" parent="sDQCDstEzer969jvJ3Kz-133">
          <mxGeometry y="24" width="120" height="74" as="geometry" />
        </mxCell>
        <mxCell id="sDQCDstEzer969jvJ3Kz-77" value="" style="group" vertex="1" connectable="0" parent="sDQCDstEzer969jvJ3Kz-76">
          <mxGeometry width="120" height="74" as="geometry" />
        </mxCell>
        <mxCell id="sDQCDstEzer969jvJ3Kz-78" value="" style="group" vertex="1" connectable="0" parent="sDQCDstEzer969jvJ3Kz-77">
          <mxGeometry y="14" width="120" height="60" as="geometry" />
        </mxCell>
        <mxCell id="sDQCDstEzer969jvJ3Kz-114" value="" style="group" vertex="1" connectable="0" parent="sDQCDstEzer969jvJ3Kz-78">
          <mxGeometry width="120" height="60" as="geometry" />
        </mxCell>
        <mxCell id="sDQCDstEzer969jvJ3Kz-100" value="" style="rounded=0;whiteSpace=wrap;html=1;" vertex="1" parent="sDQCDstEzer969jvJ3Kz-114">
          <mxGeometry width="120" height="60" as="geometry" />
        </mxCell>
        <mxCell id="sDQCDstEzer969jvJ3Kz-80" value="" style="endArrow=none;html=1;rounded=0;strokeColor=#000000;strokeWidth=2;" edge="1" parent="sDQCDstEzer969jvJ3Kz-114">
          <mxGeometry width="50" height="50" relative="1" as="geometry">
            <mxPoint x="17" y="25" as="sourcePoint" />
            <mxPoint x="107" y="25" as="targetPoint" />
            <Array as="points" />
          </mxGeometry>
        </mxCell>
        <mxCell id="sDQCDstEzer969jvJ3Kz-81" value="" style="endArrow=none;html=1;rounded=0;strokeColor=#000000;strokeWidth=2;" edge="1" parent="sDQCDstEzer969jvJ3Kz-114">
          <mxGeometry width="50" height="50" relative="1" as="geometry">
            <mxPoint x="18" y="45" as="sourcePoint" />
            <mxPoint x="18" y="25" as="targetPoint" />
          </mxGeometry>
        </mxCell>
        <mxCell id="sDQCDstEzer969jvJ3Kz-82" value="" style="endArrow=none;html=1;rounded=0;strokeColor=#000000;strokeWidth=2;" edge="1" parent="sDQCDstEzer969jvJ3Kz-114">
          <mxGeometry width="50" height="50" relative="1" as="geometry">
            <mxPoint x="106" y="46" as="sourcePoint" />
            <mxPoint x="106" y="26" as="targetPoint" />
          </mxGeometry>
        </mxCell>
        <mxCell id="sDQCDstEzer969jvJ3Kz-83" value="" style="endArrow=none;html=1;rounded=0;strokeColor=#000000;strokeWidth=2;" edge="1" parent="sDQCDstEzer969jvJ3Kz-114">
          <mxGeometry width="50" height="50" relative="1" as="geometry">
            <mxPoint x="61" y="46" as="sourcePoint" />
            <mxPoint x="61" y="26" as="targetPoint" />
          </mxGeometry>
        </mxCell>
        <mxCell id="sDQCDstEzer969jvJ3Kz-115" value="" style="group" vertex="1" connectable="0" parent="sDQCDstEzer969jvJ3Kz-77">
          <mxGeometry x="-10" y="1" width="120" height="60" as="geometry" />
        </mxCell>
        <mxCell id="sDQCDstEzer969jvJ3Kz-116" value="" style="rounded=0;whiteSpace=wrap;html=1;" vertex="1" parent="sDQCDstEzer969jvJ3Kz-115">
          <mxGeometry width="120" height="60" as="geometry" />
        </mxCell>
        <mxCell id="sDQCDstEzer969jvJ3Kz-117" value="" style="endArrow=none;html=1;rounded=0;strokeColor=#000000;strokeWidth=2;" edge="1" parent="sDQCDstEzer969jvJ3Kz-115">
          <mxGeometry width="50" height="50" relative="1" as="geometry">
            <mxPoint x="17" y="25" as="sourcePoint" />
            <mxPoint x="107" y="25" as="targetPoint" />
            <Array as="points" />
          </mxGeometry>
        </mxCell>
        <mxCell id="sDQCDstEzer969jvJ3Kz-118" value="" style="endArrow=none;html=1;rounded=0;strokeColor=#000000;strokeWidth=2;" edge="1" parent="sDQCDstEzer969jvJ3Kz-115">
          <mxGeometry width="50" height="50" relative="1" as="geometry">
            <mxPoint x="18" y="45" as="sourcePoint" />
            <mxPoint x="18" y="25" as="targetPoint" />
          </mxGeometry>
        </mxCell>
        <mxCell id="sDQCDstEzer969jvJ3Kz-119" value="" style="endArrow=none;html=1;rounded=0;strokeColor=#000000;strokeWidth=2;" edge="1" parent="sDQCDstEzer969jvJ3Kz-115">
          <mxGeometry width="50" height="50" relative="1" as="geometry">
            <mxPoint x="106" y="46" as="sourcePoint" />
            <mxPoint x="106" y="26" as="targetPoint" />
          </mxGeometry>
        </mxCell>
        <mxCell id="sDQCDstEzer969jvJ3Kz-120" value="" style="endArrow=none;html=1;rounded=0;strokeColor=#000000;strokeWidth=2;" edge="1" parent="sDQCDstEzer969jvJ3Kz-115">
          <mxGeometry width="50" height="50" relative="1" as="geometry">
            <mxPoint x="61" y="46" as="sourcePoint" />
            <mxPoint x="61" y="26" as="targetPoint" />
          </mxGeometry>
        </mxCell>
        <mxCell id="sDQCDstEzer969jvJ3Kz-121" value="" style="group" vertex="1" connectable="0" parent="sDQCDstEzer969jvJ3Kz-115">
          <mxGeometry x="-10" y="-11" width="120" height="60" as="geometry" />
        </mxCell>
        <mxCell id="sDQCDstEzer969jvJ3Kz-122" value="" style="rounded=0;whiteSpace=wrap;html=1;" vertex="1" parent="sDQCDstEzer969jvJ3Kz-121">
          <mxGeometry width="120" height="60" as="geometry" />
        </mxCell>
        <mxCell id="sDQCDstEzer969jvJ3Kz-123" value="" style="endArrow=none;html=1;rounded=0;strokeColor=#000000;strokeWidth=2;" edge="1" parent="sDQCDstEzer969jvJ3Kz-121">
          <mxGeometry width="50" height="50" relative="1" as="geometry">
            <mxPoint x="17" y="25" as="sourcePoint" />
            <mxPoint x="107" y="25" as="targetPoint" />
            <Array as="points" />
          </mxGeometry>
        </mxCell>
        <mxCell id="sDQCDstEzer969jvJ3Kz-124" value="" style="endArrow=none;html=1;rounded=0;strokeColor=#000000;strokeWidth=2;" edge="1" parent="sDQCDstEzer969jvJ3Kz-121">
          <mxGeometry width="50" height="50" relative="1" as="geometry">
            <mxPoint x="18" y="45" as="sourcePoint" />
            <mxPoint x="18" y="25" as="targetPoint" />
          </mxGeometry>
        </mxCell>
        <mxCell id="sDQCDstEzer969jvJ3Kz-125" value="" style="endArrow=none;html=1;rounded=0;strokeColor=#000000;strokeWidth=2;" edge="1" parent="sDQCDstEzer969jvJ3Kz-121">
          <mxGeometry width="50" height="50" relative="1" as="geometry">
            <mxPoint x="106" y="46" as="sourcePoint" />
            <mxPoint x="106" y="26" as="targetPoint" />
          </mxGeometry>
        </mxCell>
        <mxCell id="sDQCDstEzer969jvJ3Kz-126" value="" style="endArrow=none;html=1;rounded=0;strokeColor=#000000;strokeWidth=2;" edge="1" parent="sDQCDstEzer969jvJ3Kz-121">
          <mxGeometry width="50" height="50" relative="1" as="geometry">
            <mxPoint x="61" y="46" as="sourcePoint" />
            <mxPoint x="61" y="26" as="targetPoint" />
          </mxGeometry>
        </mxCell>
        <mxCell id="sDQCDstEzer969jvJ3Kz-132" value="" style="ellipse;whiteSpace=wrap;html=1;aspect=fixed;fillColor=#000000;" vertex="1" parent="sDQCDstEzer969jvJ3Kz-133">
          <mxGeometry x="54" width="10" height="10" as="geometry" />
        </mxCell>
        <mxCell id="sDQCDstEzer969jvJ3Kz-162" value="" style="group" vertex="1" connectable="0" parent="1">
          <mxGeometry x="270" y="210" width="185" height="74" as="geometry" />
        </mxCell>
        <mxCell id="sDQCDstEzer969jvJ3Kz-163" value="Ag" style="text;html=1;align=center;verticalAlign=middle;resizable=0;points=[];autosize=1;strokeColor=none;fillColor=none;" vertex="1" parent="sDQCDstEzer969jvJ3Kz-162">
          <mxGeometry x="120" y="54" width="30" height="20" as="geometry" />
        </mxCell>
        <mxCell id="sDQCDstEzer969jvJ3Kz-164" value="" style="group" vertex="1" connectable="0" parent="sDQCDstEzer969jvJ3Kz-162">
          <mxGeometry width="120" height="74" as="geometry" />
        </mxCell>
        <mxCell id="sDQCDstEzer969jvJ3Kz-165" value="" style="group" vertex="1" connectable="0" parent="sDQCDstEzer969jvJ3Kz-164">
          <mxGeometry width="120" height="74" as="geometry" />
        </mxCell>
        <mxCell id="sDQCDstEzer969jvJ3Kz-166" value="" style="group" vertex="1" connectable="0" parent="sDQCDstEzer969jvJ3Kz-165">
          <mxGeometry y="14" width="120" height="60" as="geometry" />
        </mxCell>
        <mxCell id="sDQCDstEzer969jvJ3Kz-167" value="" style="rounded=0;whiteSpace=wrap;html=1;" vertex="1" parent="sDQCDstEzer969jvJ3Kz-166">
          <mxGeometry width="120" height="60" as="geometry" />
        </mxCell>
        <mxCell id="sDQCDstEzer969jvJ3Kz-168" value="" style="endArrow=none;html=1;rounded=0;strokeColor=#000000;strokeWidth=2;" edge="1" parent="sDQCDstEzer969jvJ3Kz-166">
          <mxGeometry width="50" height="50" relative="1" as="geometry">
            <mxPoint x="17" y="25" as="sourcePoint" />
            <mxPoint x="107" y="25" as="targetPoint" />
            <Array as="points" />
          </mxGeometry>
        </mxCell>
        <mxCell id="sDQCDstEzer969jvJ3Kz-169" value="" style="endArrow=none;html=1;rounded=0;strokeColor=#000000;strokeWidth=2;" edge="1" parent="sDQCDstEzer969jvJ3Kz-166">
          <mxGeometry width="50" height="50" relative="1" as="geometry">
            <mxPoint x="18" y="45" as="sourcePoint" />
            <mxPoint x="18" y="25" as="targetPoint" />
          </mxGeometry>
        </mxCell>
        <mxCell id="sDQCDstEzer969jvJ3Kz-170" value="" style="endArrow=none;html=1;rounded=0;strokeColor=#000000;strokeWidth=2;" edge="1" parent="sDQCDstEzer969jvJ3Kz-166">
          <mxGeometry width="50" height="50" relative="1" as="geometry">
            <mxPoint x="106" y="46" as="sourcePoint" />
            <mxPoint x="106" y="26" as="targetPoint" />
          </mxGeometry>
        </mxCell>
        <mxCell id="sDQCDstEzer969jvJ3Kz-171" value="" style="endArrow=none;html=1;rounded=0;strokeColor=#000000;strokeWidth=2;" edge="1" parent="sDQCDstEzer969jvJ3Kz-166">
          <mxGeometry width="50" height="50" relative="1" as="geometry">
            <mxPoint x="61" y="46" as="sourcePoint" />
            <mxPoint x="61" y="26" as="targetPoint" />
          </mxGeometry>
        </mxCell>
        <mxCell id="sDQCDstEzer969jvJ3Kz-172" value="" style="ellipse;whiteSpace=wrap;html=1;aspect=fixed;fillColor=#000000;" vertex="1" parent="sDQCDstEzer969jvJ3Kz-165">
          <mxGeometry x="72" width="10" height="10" as="geometry" />
        </mxCell>
        <mxCell id="sDQCDstEzer969jvJ3Kz-173" value="" style="ellipse;whiteSpace=wrap;html=1;aspect=fixed;fillColor=#000000;" vertex="1" parent="sDQCDstEzer969jvJ3Kz-165">
          <mxGeometry x="39" y="1" width="10" height="10" as="geometry" />
        </mxCell>
        <mxCell id="sDQCDstEzer969jvJ3Kz-186" value="" style="group" vertex="1" connectable="0" parent="1">
          <mxGeometry x="120" y="209" width="120" height="74" as="geometry" />
        </mxCell>
        <mxCell id="sDQCDstEzer969jvJ3Kz-188" value="" style="group" vertex="1" connectable="0" parent="sDQCDstEzer969jvJ3Kz-186">
          <mxGeometry y="14" width="120" height="60" as="geometry" />
        </mxCell>
        <mxCell id="sDQCDstEzer969jvJ3Kz-189" value="" style="rounded=0;whiteSpace=wrap;html=1;" vertex="1" parent="sDQCDstEzer969jvJ3Kz-188">
          <mxGeometry width="120" height="60" as="geometry" />
        </mxCell>
        <mxCell id="sDQCDstEzer969jvJ3Kz-194" value="" style="ellipse;whiteSpace=wrap;html=1;aspect=fixed;fillColor=#000000;" vertex="1" parent="sDQCDstEzer969jvJ3Kz-186">
          <mxGeometry x="72" y="1" width="10" height="10" as="geometry" />
        </mxCell>
        <mxCell id="sDQCDstEzer969jvJ3Kz-195" value="" style="ellipse;whiteSpace=wrap;html=1;aspect=fixed;fillColor=#000000;" vertex="1" parent="sDQCDstEzer969jvJ3Kz-186">
          <mxGeometry x="39" y="1" width="10" height="10" as="geometry" />
        </mxCell>
        <mxCell id="sDQCDstEzer969jvJ3Kz-197" value="" style="group" vertex="1" connectable="0" parent="1">
          <mxGeometry x="560" y="210" width="120" height="74" as="geometry" />
        </mxCell>
        <mxCell id="sDQCDstEzer969jvJ3Kz-198" value="" style="group" vertex="1" connectable="0" parent="sDQCDstEzer969jvJ3Kz-197">
          <mxGeometry y="14" width="120" height="60" as="geometry" />
        </mxCell>
        <mxCell id="sDQCDstEzer969jvJ3Kz-199" value="" style="rounded=0;whiteSpace=wrap;html=1;" vertex="1" parent="sDQCDstEzer969jvJ3Kz-198">
          <mxGeometry width="120" height="60" as="geometry" />
        </mxCell>
        <mxCell id="sDQCDstEzer969jvJ3Kz-200" value="" style="endArrow=none;html=1;rounded=0;strokeColor=#000000;strokeWidth=2;" edge="1" parent="sDQCDstEzer969jvJ3Kz-198">
          <mxGeometry width="50" height="50" relative="1" as="geometry">
            <mxPoint x="17" y="25" as="sourcePoint" />
            <mxPoint x="107" y="25" as="targetPoint" />
            <Array as="points" />
          </mxGeometry>
        </mxCell>
        <mxCell id="sDQCDstEzer969jvJ3Kz-201" value="" style="endArrow=none;html=1;rounded=0;strokeColor=#000000;strokeWidth=2;" edge="1" parent="sDQCDstEzer969jvJ3Kz-198">
          <mxGeometry width="50" height="50" relative="1" as="geometry">
            <mxPoint x="18" y="45" as="sourcePoint" />
            <mxPoint x="18" y="25" as="targetPoint" />
          </mxGeometry>
        </mxCell>
        <mxCell id="sDQCDstEzer969jvJ3Kz-202" value="" style="endArrow=none;html=1;rounded=0;strokeColor=#000000;strokeWidth=2;" edge="1" parent="sDQCDstEzer969jvJ3Kz-198">
          <mxGeometry width="50" height="50" relative="1" as="geometry">
            <mxPoint x="106" y="46" as="sourcePoint" />
            <mxPoint x="106" y="26" as="targetPoint" />
          </mxGeometry>
        </mxCell>
        <mxCell id="sDQCDstEzer969jvJ3Kz-203" value="" style="endArrow=none;html=1;rounded=0;strokeColor=#000000;strokeWidth=2;" edge="1" parent="sDQCDstEzer969jvJ3Kz-198">
          <mxGeometry width="50" height="50" relative="1" as="geometry">
            <mxPoint x="61" y="46" as="sourcePoint" />
            <mxPoint x="61" y="26" as="targetPoint" />
          </mxGeometry>
        </mxCell>
        <mxCell id="sDQCDstEzer969jvJ3Kz-204" value="" style="ellipse;whiteSpace=wrap;html=1;aspect=fixed;fillColor=#000000;" vertex="1" parent="sDQCDstEzer969jvJ3Kz-197">
          <mxGeometry x="72" width="10" height="10" as="geometry" />
        </mxCell>
        <mxCell id="sDQCDstEzer969jvJ3Kz-205" value="" style="ellipse;whiteSpace=wrap;html=1;aspect=fixed;fillColor=#000000;" vertex="1" parent="sDQCDstEzer969jvJ3Kz-197">
          <mxGeometry x="39" y="1" width="10" height="10" as="geometry" />
        </mxCell>
        <mxCell id="sDQCDstEzer969jvJ3Kz-206" value="" style="group" vertex="1" connectable="0" parent="1">
          <mxGeometry x="702" y="210" width="120" height="74" as="geometry" />
        </mxCell>
        <mxCell id="sDQCDstEzer969jvJ3Kz-207" value="" style="group" vertex="1" connectable="0" parent="sDQCDstEzer969jvJ3Kz-206">
          <mxGeometry y="14" width="120" height="60" as="geometry" />
        </mxCell>
        <mxCell id="sDQCDstEzer969jvJ3Kz-208" value="" style="rounded=0;whiteSpace=wrap;html=1;" vertex="1" parent="sDQCDstEzer969jvJ3Kz-207">
          <mxGeometry width="120" height="60" as="geometry" />
        </mxCell>
        <mxCell id="sDQCDstEzer969jvJ3Kz-209" value="" style="endArrow=none;html=1;rounded=0;strokeColor=#000000;strokeWidth=2;" edge="1" parent="sDQCDstEzer969jvJ3Kz-207">
          <mxGeometry width="50" height="50" relative="1" as="geometry">
            <mxPoint x="17" y="25" as="sourcePoint" />
            <mxPoint x="107" y="25" as="targetPoint" />
            <Array as="points" />
          </mxGeometry>
        </mxCell>
        <mxCell id="sDQCDstEzer969jvJ3Kz-210" value="" style="endArrow=none;html=1;rounded=0;strokeColor=#000000;strokeWidth=2;" edge="1" parent="sDQCDstEzer969jvJ3Kz-207">
          <mxGeometry width="50" height="50" relative="1" as="geometry">
            <mxPoint x="18" y="45" as="sourcePoint" />
            <mxPoint x="18" y="25" as="targetPoint" />
          </mxGeometry>
        </mxCell>
        <mxCell id="sDQCDstEzer969jvJ3Kz-211" value="" style="endArrow=none;html=1;rounded=0;strokeColor=#000000;strokeWidth=2;" edge="1" parent="sDQCDstEzer969jvJ3Kz-207">
          <mxGeometry width="50" height="50" relative="1" as="geometry">
            <mxPoint x="106" y="46" as="sourcePoint" />
            <mxPoint x="106" y="26" as="targetPoint" />
          </mxGeometry>
        </mxCell>
        <mxCell id="sDQCDstEzer969jvJ3Kz-212" value="" style="endArrow=none;html=1;rounded=0;strokeColor=#000000;strokeWidth=2;" edge="1" parent="sDQCDstEzer969jvJ3Kz-207">
          <mxGeometry width="50" height="50" relative="1" as="geometry">
            <mxPoint x="61" y="46" as="sourcePoint" />
            <mxPoint x="61" y="26" as="targetPoint" />
          </mxGeometry>
        </mxCell>
        <mxCell id="sDQCDstEzer969jvJ3Kz-213" value="" style="ellipse;whiteSpace=wrap;html=1;aspect=fixed;fillColor=#000000;" vertex="1" parent="sDQCDstEzer969jvJ3Kz-206">
          <mxGeometry x="72" width="10" height="10" as="geometry" />
        </mxCell>
        <mxCell id="sDQCDstEzer969jvJ3Kz-214" value="" style="ellipse;whiteSpace=wrap;html=1;aspect=fixed;fillColor=#000000;" vertex="1" parent="sDQCDstEzer969jvJ3Kz-206">
          <mxGeometry x="39" y="1" width="10" height="10" as="geometry" />
        </mxCell>
        <mxCell id="sDQCDstEzer969jvJ3Kz-215" value="" style="group" vertex="1" connectable="0" parent="1">
          <mxGeometry x="273" y="20" width="150" height="84" as="geometry" />
        </mxCell>
        <mxCell id="sDQCDstEzer969jvJ3Kz-1" value="" style="rounded=0;whiteSpace=wrap;html=1;" vertex="1" parent="sDQCDstEzer969jvJ3Kz-215">
          <mxGeometry y="24" width="120" height="60" as="geometry" />
        </mxCell>
        <mxCell id="sDQCDstEzer969jvJ3Kz-2" value="" style="endArrow=none;html=1;rounded=0;strokeColor=#000000;strokeWidth=2;" edge="1" parent="sDQCDstEzer969jvJ3Kz-215">
          <mxGeometry width="50" height="50" relative="1" as="geometry">
            <mxPoint x="17" y="49" as="sourcePoint" />
            <mxPoint x="107" y="49" as="targetPoint" />
            <Array as="points" />
          </mxGeometry>
        </mxCell>
        <mxCell id="sDQCDstEzer969jvJ3Kz-3" value="" style="endArrow=none;html=1;rounded=0;strokeColor=#000000;strokeWidth=2;" edge="1" parent="sDQCDstEzer969jvJ3Kz-215">
          <mxGeometry width="50" height="50" relative="1" as="geometry">
            <mxPoint x="18" y="69" as="sourcePoint" />
            <mxPoint x="18" y="49" as="targetPoint" />
          </mxGeometry>
        </mxCell>
        <mxCell id="sDQCDstEzer969jvJ3Kz-4" value="" style="endArrow=none;html=1;rounded=0;strokeColor=#000000;strokeWidth=2;" edge="1" parent="sDQCDstEzer969jvJ3Kz-215">
          <mxGeometry width="50" height="50" relative="1" as="geometry">
            <mxPoint x="106" y="70" as="sourcePoint" />
            <mxPoint x="106" y="50" as="targetPoint" />
          </mxGeometry>
        </mxCell>
        <mxCell id="sDQCDstEzer969jvJ3Kz-5" value="" style="endArrow=none;html=1;rounded=0;strokeColor=#000000;strokeWidth=2;" edge="1" parent="sDQCDstEzer969jvJ3Kz-215">
          <mxGeometry width="50" height="50" relative="1" as="geometry">
            <mxPoint x="61" y="70" as="sourcePoint" />
            <mxPoint x="61" y="50" as="targetPoint" />
          </mxGeometry>
        </mxCell>
        <mxCell id="sDQCDstEzer969jvJ3Kz-44" value="" style="endArrow=none;html=1;rounded=0;strokeColor=#000000;strokeWidth=2;" edge="1" parent="sDQCDstEzer969jvJ3Kz-215">
          <mxGeometry width="50" height="50" relative="1" as="geometry">
            <mxPoint x="61" as="sourcePoint" />
            <mxPoint x="61" y="20" as="targetPoint" />
          </mxGeometry>
        </mxCell>
        <mxCell id="sDQCDstEzer969jvJ3Kz-49" value="601" style="text;html=1;align=center;verticalAlign=middle;resizable=0;points=[];autosize=1;strokeColor=none;fillColor=none;" vertex="1" parent="sDQCDstEzer969jvJ3Kz-215">
          <mxGeometry x="110" y="64" width="40" height="20" as="geometry" />
        </mxCell>
        <mxCell id="sDQCDstEzer969jvJ3Kz-216" value="" style="endArrow=none;html=1;rounded=0;strokeColor=#000000;strokeWidth=2;" edge="1" parent="1">
          <mxGeometry width="50" height="50" relative="1" as="geometry">
            <mxPoint x="-180" y="200" as="sourcePoint" />
            <mxPoint x="761.1764705882352" y="200" as="targetPoint" />
          </mxGeometry>
        </mxCell>
        <mxCell id="sDQCDstEzer969jvJ3Kz-217" value="" style="endArrow=none;html=1;rounded=0;strokeColor=#000000;strokeWidth=2;" edge="1" parent="1" source="sDQCDstEzer969jvJ3Kz-64">
          <mxGeometry width="50" height="50" relative="1" as="geometry">
            <mxPoint x="-90" y="300" as="sourcePoint" />
            <mxPoint x="-180" y="200" as="targetPoint" />
          </mxGeometry>
        </mxCell>
        <mxCell id="sDQCDstEzer969jvJ3Kz-218" value="" style="endArrow=none;html=1;rounded=0;strokeColor=#000000;strokeWidth=2;exitX=0.5;exitY=0;exitDx=0;exitDy=0;" edge="1" parent="1" source="sDQCDstEzer969jvJ3Kz-122">
          <mxGeometry width="50" height="50" relative="1" as="geometry">
            <mxPoint x="-170" y="233" as="sourcePoint" />
            <mxPoint y="200" as="targetPoint" />
          </mxGeometry>
        </mxCell>
        <mxCell id="sDQCDstEzer969jvJ3Kz-219" value="" style="endArrow=none;html=1;rounded=0;strokeColor=#000000;strokeWidth=2;" edge="1" parent="1">
          <mxGeometry width="50" height="50" relative="1" as="geometry">
            <mxPoint x="-180" y="270" as="sourcePoint" />
            <mxPoint x="-180" y="250" as="targetPoint" />
          </mxGeometry>
        </mxCell>
        <mxCell id="sDQCDstEzer969jvJ3Kz-220" value="" style="endArrow=none;html=1;rounded=0;strokeColor=#000000;strokeWidth=2;exitX=0.5;exitY=0;exitDx=0;exitDy=0;" edge="1" parent="1">
          <mxGeometry width="50" height="50" relative="1" as="geometry">
            <mxPoint x="181" y="224" as="sourcePoint" />
            <mxPoint x="181" y="200" as="targetPoint" />
          </mxGeometry>
        </mxCell>
        <mxCell id="sDQCDstEzer969jvJ3Kz-221" value="" style="endArrow=none;html=1;rounded=0;strokeColor=#000000;strokeWidth=2;exitX=0.5;exitY=0;exitDx=0;exitDy=0;" edge="1" parent="1">
          <mxGeometry width="50" height="50" relative="1" as="geometry">
            <mxPoint x="483" y="225" as="sourcePoint" />
            <mxPoint x="483" y="201" as="targetPoint" />
          </mxGeometry>
        </mxCell>
        <mxCell id="sDQCDstEzer969jvJ3Kz-222" value="" style="endArrow=none;html=1;rounded=0;strokeColor=#000000;strokeWidth=2;exitX=0.5;exitY=0;exitDx=0;exitDy=0;" edge="1" parent="1">
          <mxGeometry width="50" height="50" relative="1" as="geometry">
            <mxPoint x="622" y="224" as="sourcePoint" />
            <mxPoint x="622" y="200" as="targetPoint" />
          </mxGeometry>
        </mxCell>
        <mxCell id="sDQCDstEzer969jvJ3Kz-223" value="" style="endArrow=none;html=1;rounded=0;strokeColor=#000000;strokeWidth=2;exitX=0.5;exitY=0;exitDx=0;exitDy=0;" edge="1" parent="1">
          <mxGeometry width="50" height="50" relative="1" as="geometry">
            <mxPoint x="760" y="223" as="sourcePoint" />
            <mxPoint x="760" y="199" as="targetPoint" />
          </mxGeometry>
        </mxCell>
        <mxCell id="sDQCDstEzer969jvJ3Kz-232" value="" style="group" vertex="1" connectable="0" parent="1">
          <mxGeometry x="170" y="240" width="30" height="40" as="geometry" />
        </mxCell>
        <mxCell id="sDQCDstEzer969jvJ3Kz-225" value="" style="endArrow=none;html=1;rounded=0;strokeColor=#000000;strokeWidth=2;" edge="1" parent="sDQCDstEzer969jvJ3Kz-232">
          <mxGeometry width="50" height="50" relative="1" as="geometry">
            <mxPoint x="15" as="sourcePoint" />
            <mxPoint x="15" y="40" as="targetPoint" />
          </mxGeometry>
        </mxCell>
        <mxCell id="sDQCDstEzer969jvJ3Kz-226" value="" style="endArrow=none;html=1;rounded=0;strokeColor=#000000;strokeWidth=2;" edge="1" parent="sDQCDstEzer969jvJ3Kz-232">
          <mxGeometry width="50" height="50" relative="1" as="geometry">
            <mxPoint y="13.333333333333332" as="sourcePoint" />
            <mxPoint x="30" y="13.333333333333332" as="targetPoint" />
          </mxGeometry>
        </mxCell>
        <mxCell id="sDQCDstEzer969jvJ3Kz-230" value="" style="endArrow=none;html=1;rounded=0;strokeColor=#000000;strokeWidth=2;" edge="1" parent="sDQCDstEzer969jvJ3Kz-232">
          <mxGeometry width="50" height="50" relative="1" as="geometry">
            <mxPoint as="sourcePoint" />
            <mxPoint y="14.666666666666666" as="targetPoint" />
          </mxGeometry>
        </mxCell>
        <mxCell id="sDQCDstEzer969jvJ3Kz-231" value="" style="endArrow=none;html=1;rounded=0;strokeColor=#000000;strokeWidth=2;" edge="1" parent="sDQCDstEzer969jvJ3Kz-232">
          <mxGeometry width="50" height="50" relative="1" as="geometry">
            <mxPoint x="30" as="sourcePoint" />
            <mxPoint x="30" y="14.666666666666666" as="targetPoint" />
          </mxGeometry>
        </mxCell>
        <mxCell id="sDQCDstEzer969jvJ3Kz-233" value="" style="triangle;whiteSpace=wrap;html=1;fillColor=#000000;rotation=-90;" vertex="1" parent="1">
          <mxGeometry x="165" y="235" width="10" height="10" as="geometry" />
        </mxCell>
        <mxCell id="sDQCDstEzer969jvJ3Kz-234" value="" style="triangle;whiteSpace=wrap;html=1;fillColor=#000000;rotation=-90;" vertex="1" parent="1">
          <mxGeometry x="180" y="237" width="10" height="10" as="geometry" />
        </mxCell>
        <mxCell id="sDQCDstEzer969jvJ3Kz-235" value="" style="triangle;whiteSpace=wrap;html=1;fillColor=#000000;rotation=-90;" vertex="1" parent="1">
          <mxGeometry x="195" y="235" width="10" height="10" as="geometry" />
        </mxCell>
        <mxCell id="sDQCDstEzer969jvJ3Kz-236" value="Maq Viales" style="text;html=1;align=center;verticalAlign=middle;resizable=0;points=[];autosize=1;strokeColor=none;fillColor=none;" vertex="1" parent="1">
          <mxGeometry x="816" y="260" width="70" height="20" as="geometry" />
        </mxCell>
        <mxCell id="sDQCDstEzer969jvJ3Kz-241" value="" style="endArrow=none;html=1;rounded=0;strokeColor=#000000;strokeWidth=2;" edge="1" parent="1" target="sDQCDstEzer969jvJ3Kz-178">
          <mxGeometry width="50" height="50" relative="1" as="geometry">
            <mxPoint x="421" y="224" as="sourcePoint" />
            <mxPoint x="451" y="244" as="targetPoint" />
          </mxGeometry>
        </mxCell>
        <mxCell id="sDQCDstEzer969jvJ3Kz-244" value="Viali&lt;br&gt;dad" style="text;html=1;align=center;verticalAlign=middle;resizable=0;points=[];autosize=1;strokeColor=none;fillColor=none;" vertex="1" parent="1">
          <mxGeometry x="670" y="255" width="40" height="30" as="geometry" />
        </mxCell>
      </root>
    </mxGraphModel>
  </diagram>
</mxfile>
